<?xml version="1.0"?>
<svg xmlns:rdf="http://www.w3.org/1999/02/22-rdf-syntax-ns#" xmlns="http://www.w3.org/2000/svg" xmlns:cc="http://web.resource.org/cc/" xmlns:xlink="http://www.w3.org/1999/xlink" xmlns:dc="http://purl.org/dc/elements/1.1/" xmlns:svg="http://www.w3.org/2000/svg" id="svg5896" viewBox="0 0 389.76 549.21" version="1.0">
  <defs id="defs5898">
    <linearGradient id="linearGradient14806">
      <stop id="stop14808" stop-color="#a0dfff" offset="0"/>
      <stop id="stop14810" stop-color="#00a6d4" stop-opacity=".98039" offset="1"/>
    </linearGradient>
    <linearGradient id="linearGradient14841">
      <stop id="stop14843" stop-color="#ffd5a0" offset="0"/>
      <stop id="stop14845" stop-color="#ff9d22" stop-opacity=".98039" offset="1"/>
    </linearGradient>
    <linearGradient id="linearGradient6752">
      <stop id="stop6754" stop-color="#ffa0a0" offset="0"/>
      <stop id="stop6756" stop-color="#d40000" stop-opacity=".97938" offset="1"/>
    </linearGradient>
    <radialGradient id="radialGradient6980" xlink:href="#linearGradient6752" gradientUnits="userSpaceOnUse" cy="897.66" cx="125.7" gradientTransform="matrix(1.4554 -.19272 .35618 2.6899 -376.97 -1493.1)" r="21.995"/>
    <radialGradient id="radialGradient6982" xlink:href="#linearGradient6752" gradientUnits="userSpaceOnUse" cy="540.68" cx="236.82" gradientTransform="matrix(.26118 .34563 -.35605 .26906 309.64 -22.842)" r="352.86"/>
    <radialGradient id="radialGradient6984" xlink:href="#linearGradient14841" gradientUnits="userSpaceOnUse" cy="897.66" cx="125.7" gradientTransform="matrix(1.4554 -.19272 .35618 2.6899 -376.97 -1493.1)" r="21.995"/>
    <radialGradient id="radialGradient6986" xlink:href="#linearGradient14841" gradientUnits="userSpaceOnUse" cy="540.68" cx="236.82" gradientTransform="matrix(.26118 .34563 -.35605 .26906 594.53 -88.437)" r="352.86"/>
    <radialGradient id="radialGradient6988" xlink:href="#linearGradient14806" gradientUnits="userSpaceOnUse" cy="897.66" cx="125.7" gradientTransform="matrix(1.4554 -.19272 .35618 2.6899 -376.97 -1493.1)" r="21.995"/>
    <radialGradient id="radialGradient6990" xlink:href="#linearGradient14806" gradientUnits="userSpaceOnUse" cy="540.68" cx="236.82" gradientTransform="matrix(.26118 .34563 -.35605 .26906 436.92 5.4421)" r="352.86"/>
  </defs>
  <g id="layer1" transform="translate(-23.268 -17.458)">
    <g id="g6968" transform="matrix(.63864 0 0 .63864 -20.883 8.3177)">
      <path id="path14767" d="m127.28 870.53c3.5-0.42 27.8 32.02 26.42 35.26-1.39 3.24-41.63 8.07-43.75 5.25-2.11-2.82 13.83-40.09 17.33-40.51z" fill="url(#radialGradient6980)" transform="translate(105.37 -459.84)"/>
      <path id="path14753" d="m366.13 242.56c0 74.13-66.2 184.8-134.29 184.8-70.11 0-134.29-110.67-134.29-184.8 0.004-74.12 60.16-142.36 134.29-142.36s134.29 68.24 134.29 142.36z" fill="url(#radialGradient6982)"/>
      <path id="path14790" stroke-linejoin="round" d="m221.54 427.87c8.45-1.75 14.4-3.53 25.5-0.95 13.65 161.48 101.75 237.18 139.84 382.7 2.96 11.32-1.41 30.09 0.98 42.23" stroke="#816647" stroke-linecap="round" stroke-width="3" fill="none"/>
      <path id="path14822" d="m127.28 870.53c3.5-0.42 27.8 32.02 26.42 35.26-1.39 3.24-41.63 8.07-43.75 5.25-2.11-2.82 13.83-40.09 17.33-40.51z" fill="url(#radialGradient6984)" transform="translate(390.26 -525.44)"/>
      <path id="path14824" d="m651.02 176.97c0 74.12-66.2 184.79-134.29 184.79-70.11 0-134.28-110.67-134.28-184.79 0-74.13 60.16-142.37 134.28-142.37 74.13 0.001 134.29 68.24 134.29 142.37z" fill="url(#radialGradient6986)"/>
      <path id="path14826" stroke-linejoin="round" d="m506.43 362.27c8.46-1.74 14.4-3.53 25.5-0.95-21.27 220.57-109.66 268.39-136.79 448.54-0.49 3.26 1.51 16.73 4.65 41.6" stroke="#816647" stroke-linecap="round" stroke-width="3" fill="none"/>
      <path id="path14796" fill="url(#radialGradient6988)" transform="translate(232.65 -431.56)" d="m127.28 870.53c3.5-0.42 27.8 32.02 26.42 35.26-1.39 3.24-41.63 8.07-43.75 5.25-2.11-2.82 13.83-40.09 17.33-40.51z"/>
      <path id="path14798" d="m493.4 270.85c0 74.12-66.19 184.79-134.28 184.79-70.11 0-134.29-110.67-134.29-184.79 0-74.13 60.16-142.37 134.29-142.37 74.12 0 134.28 68.24 134.28 142.37z" fill="url(#radialGradient6990)"/>
      <path id="path14800" stroke-linejoin="round" d="m348.82 456.15c8.45-1.75 14.4-3.53 25.5-0.95 12.62 112.79 36.62 204.67 17.15 352.81-0.49 4.7 2.43 28.23 1.81 44.49" stroke="#816647" stroke-linecap="round" stroke-width="3" fill="none"/>
      <path id="path6930" d="m391.03 810.22c-1.08 0.13-1.45 0.42-4.65 0.84-0.83-0.01-1.52 0.64-1.54 1.47-0.01 0.83 0.64 1.52 1.47 1.53-0.45 0.34-1.03 0.95-0.97 1.82 0.04 0.5 0.4 0.99 0.72 1.24-0.01 0.08-0.05 0.14-0.06 0.22-0.09 0.6-0.21 1.4-0.34 2.5-0.11 0.83 0.48 1.59 1.31 1.69s1.58-0.48 1.69-1.31c0.08-0.65 0.13-0.97 0.18-1.41 0.62 0.29 1.35 0.5 2.25 0.47 1.63-0.05 3.59-0.75 6.1-2.5 0.44-0.3 0.69-0.81 0.65-1.34-0.04-0.55-0.43-1.08-0.78-1.32-0.07-0.04-0.12-0.02-0.18-0.06 0.45-0.35 0.97-0.97 0.9-1.81-0.05-0.69-0.56-1.26-1.25-1.37-3.58-0.6-4.42-0.8-5.5-0.66z" fill="#816647" fill-rule="evenodd"/>
    </g>
  </g>
  <metadata>
    <rdf:RDF>
      <cc:Work>
        <dc:format>image/svg+xml</dc:format>
        <dc:type rdf:resource="http://purl.org/dc/dcmitype/StillImage"/>
        <cc:license rdf:resource="http://creativecommons.org/licenses/publicdomain/"/>
        <dc:publisher>
          <cc:Agent rdf:about="http://openclipart.org/">
            <dc:title>Openclipart</dc:title>
          </cc:Agent>
        </dc:publisher>
        <dc:title>Balloons</dc:title>
        <dc:date>2007-11-06T04:27:00</dc:date>
        <dc:description>Three balloons (red,blue and orange) attached together.</dc:description>
        <dc:source>http://openclipart.org/detail/7978/balloons-by-carlitos</dc:source>
        <dc:creator>
          <cc:Agent>
            <dc:title>carlitos</dc:title>
          </cc:Agent>
        </dc:creator>
        <dc:subject>
          <rdf:Bag>
            <rdf:li>balloon</rdf:li>
            <rdf:li>birthday</rdf:li>
            <rdf:li>clip art</rdf:li>
            <rdf:li>clipart</rdf:li>
            <rdf:li>helium</rdf:li>
            <rdf:li>image</rdf:li>
            <rdf:li>kids</rdf:li>
            <rdf:li>media</rdf:li>
            <rdf:li>party</rdf:li>
            <rdf:li>png</rdf:li>
            <rdf:li>public domain</rdf:li>
            <rdf:li>svg</rdf:li>
          </rdf:Bag>
        </dc:subject>
      </cc:Work>
      <cc:License rdf:about="http://creativecommons.org/licenses/publicdomain/">
        <cc:permits rdf:resource="http://creativecommons.org/ns#Reproduction"/>
        <cc:permits rdf:resource="http://creativecommons.org/ns#Distribution"/>
        <cc:permits rdf:resource="http://creativecommons.org/ns#DerivativeWorks"/>
      </cc:License>
    </rdf:RDF>
  </metadata>
</svg>
